<?xml version="1.0" standalone="no"?>
<!DOCTYPE svg PUBLIC "-//W3C//DTD SVG 20010904//EN"
 "http://www.w3.org/TR/2001/REC-SVG-20010904/DTD/svg10.dtd">
<svg version="1.0" xmlns="http://www.w3.org/2000/svg"
 width="512.000000pt" height="512.000000pt" viewBox="0 0 512.000000 512.000000"
 preserveAspectRatio="xMidYMid meet">

<g transform="translate(0.000000,512.000000) scale(0.100000,-0.100000)"
fill="#000000" stroke="none">
<path d="M600 4604 c-109 -29 -199 -106 -248 -212 l-27 -57 0 -1775 0 -1775
33 -67 c40 -82 119 -157 200 -190 l57 -23 1520 -3 c1108 -2 1536 0 1580 8 118
23 219 100 273 209 l27 56 3 1022 2 1021 85 78 c287 260 514 614 642 1003 59
180 63 212 30 245 -15 15 -37 26 -53 26 -84 0 -434 -148 -612 -258 -46 -29
-85 -52 -87 -52 -2 0 -5 109 -7 243 -3 241 -3 242 -30 298 -53 106 -152 184
-266 208 -38 8 -480 11 -1560 10 -1294 0 -1515 -2 -1562 -15z m3150 -174 c24
-14 58 -45 75 -68 l30 -44 3 -287 3 -288 -73 -54 c-452 -335 -936 -871 -1334
-1476 -180 -273 -374 -605 -374 -638 0 -70 99 -103 140 -47 11 15 46 72 78
127 67 117 52 112 222 67 420 -110 769 -25 939 229 66 99 56 131 -56 184 -80
39 -158 107 -188 164 -9 18 -15 34 -13 35 2 1 39 17 83 35 137 58 313 152 444
238 l126 82 3 -917 c1 -504 0 -931 -3 -948 -8 -46 -59 -110 -107 -136 l-43
-23 -1536 0 -1536 0 -48 30 c-36 22 -57 45 -77 84 l-28 53 0 1727 0 1727 26
52 c27 55 64 87 123 108 29 11 331 13 1556 11 l1520 -2 45 -25z m806 -595
c-175 -447 -481 -814 -911 -1094 -137 -90 -355 -201 -499 -255 -132 -50 -156
-73 -138 -133 29 -96 137 -238 233 -305 l59 -42 -36 -37 c-103 -106 -300 -156
-507 -130 -89 10 -307 59 -307 67 0 10 154 247 237 366 481 686 1003 1199
1538 1512 147 86 368 191 373 177 2 -5 -17 -62 -42 -126z"/>
</g>
</svg>
